<svg width="25" height="24" viewBox="0 0 25 24" fill="none" xmlns="http://www.w3.org/2000/svg">
<path d="M12.2919 4.29396L11.1902 3.14236C8.60427 0.439152 3.86261 1.37199 2.15095 4.77053C1.34735 6.36902 1.16605 8.6769 2.63341 11.6223C4.04699 14.4583 6.98786 17.8553 12.2919 21.5554C17.5959 17.8553 20.5352 14.4583 21.9504 11.6223C23.4177 8.67534 23.2379 6.36902 22.4328 4.77053C20.7211 1.37199 15.9795 0.437589 13.3936 3.1408L12.2919 4.29396ZM12.2919 23.4383C-11.2674 7.60656 5.03804 -4.75007 12.0215 1.78607C12.1136 1.87201 12.2043 1.96107 12.2919 2.05326C12.3786 1.96116 12.4688 1.87254 12.5623 1.78763C19.5442 -4.75319 35.8511 7.60499 12.2919 23.4383Z" fill="#E3CAA5"/>
</svg>
