<svg width="30" height="26" viewBox="0 0 30 26" fill="none" xmlns="http://www.w3.org/2000/svg">
<path d="M28.1249 25.5H1.87501C0.839433 25.5 0 24.5672 0 23.4167C0 22.2661 0.839433 21.3333 1.87501 21.3333H28.125C29.1605 21.3333 30 22.2661 30 23.4167C29.9999 24.5672 29.1605 25.5 28.1249 25.5ZM28.1249 15.0833H1.87501C0.839433 15.0833 0 14.1506 0 13C0 11.8495 0.839433 10.9167 1.87501 10.9167H28.125C29.1605 10.9167 30 11.8494 30 13C30 14.1507 29.1605 15.0833 28.1249 15.0833ZM28.1249 4.66668H1.87501C0.839433 4.66668 0 3.73398 0 2.58334C0 1.4327 0.839433 0.5 1.87501 0.5H28.125C29.1605 0.5 30 1.4327 30 2.58334C30 3.73398 29.1605 4.66668 28.1249 4.66668Z" fill="white"/>
</svg>
