<svg width="25" height="25" viewBox="0 0 25 25" fill="none" xmlns="http://www.w3.org/2000/svg">
<path d="M14.7093 12.5L24.5422 2.66809C25.1526 2.05772 25.1526 1.06811 24.5422 0.457782C23.9318 -0.152594 22.9422 -0.152594 22.3319 0.457782L12.5 10.2907L2.66809 0.457782C2.05772 -0.152594 1.06811 -0.152594 0.457782 0.457782C-0.152545 1.06816 -0.152594 2.05777 0.457782 2.66809L10.2907 12.5L0.457782 22.3319C-0.152594 22.9423 -0.152594 23.9319 0.457782 24.5422C1.06816 25.1525 2.05777 25.1526 2.66809 24.5422L12.5 14.7093L22.3319 24.5422C22.9422 25.1526 23.9318 25.1526 24.5422 24.5422C25.1525 23.9318 25.1525 22.9422 24.5422 22.3319L14.7093 12.5Z" fill="#E3CAA5"/>
</svg>
