<svg width="14" height="15" viewBox="0 0 14 15" fill="none" xmlns="http://www.w3.org/2000/svg">
<g clip-path="url(#clip0_398_98)">
<path d="M7 0.761856C3.14008 0.761856 0 3.87702 0 7.7063C0 11.5356 3.14008 14.6507 7 14.6507C10.8599 14.6507 14 11.5356 14 7.7063C14 3.87702 10.8599 0.761856 7 0.761856ZM7 14.072C3.46208 14.072 0.583333 11.2161 0.583333 7.7063C0.583333 4.19646 3.46208 1.34056 7 1.34056C10.5379 1.34056 13.4167 4.19646 13.4167 7.7063C13.4167 11.2161 10.5379 14.072 7 14.072ZM9.33333 9.08014C9.33333 9.91811 8.64617 10.5998 7.8015 10.5998H7.29167V11.4679C7.29167 11.6276 7.161 11.7572 7 11.7572C6.839 11.7572 6.70833 11.6276 6.70833 11.4679V10.5998H6.16817C5.59708 10.5998 5.06392 10.2954 4.77867 9.8041C4.69758 9.66579 4.74542 9.48871 4.88542 9.40885C5.02425 9.32783 5.20275 9.37586 5.28383 9.51475C5.46583 9.82725 5.80533 10.0211 6.16875 10.0211H7.80208C8.32475 10.0211 8.75058 9.59924 8.75058 9.08014C8.75058 8.61544 8.41517 8.22482 7.95258 8.15132L5.95642 7.83304C5.20975 7.71382 4.66725 7.08304 4.66725 6.33246C4.66725 5.4945 5.35442 4.81278 6.19908 4.81278H6.70892V3.94473C6.70892 3.785 6.83958 3.65537 7.00058 3.65537C7.16158 3.65537 7.29225 3.785 7.29225 3.94473V4.81278H7.83242C8.4035 4.81278 8.93608 5.11776 9.22192 5.6085C9.303 5.74681 9.25517 5.92389 9.11517 6.00375C8.9775 6.08246 8.79725 6.03674 8.71675 5.89785C8.53475 5.58535 8.19525 5.39149 7.83183 5.39149H6.1985C5.67583 5.39149 5.25 5.81336 5.25 6.33246C5.25 6.79716 5.58542 7.18778 6.048 7.26128L8.04417 7.57956C8.79083 7.69878 9.33333 8.33014 9.33333 9.08014Z" fill="#E3CAA5"/>
</g>
<defs>
<clipPath id="clip0_398_98">
<rect width="14" height="13.8889" fill="white" transform="translate(0 0.761856)"/>
</clipPath>
</defs>
</svg>
